<svg width="120" height="120" viewBox="0 0 120 120" fill="none" xmlns="http://www.w3.org/2000/svg">
<g filter="url(#filter0_d)">
<mask id="path-1-outside-1" maskUnits="userSpaceOnUse" x="50" y="50" width="20" height="20" fill="black">
<rect fill="white" x="50" y="50" width="20" height="20"/>
<path d="M55.6545 53.3283C55.5954 53.2524 55.5209 53.1898 55.4359 53.1449C55.3508 53.1 55.2572 53.0737 55.1612 53.0677C55.0652 53.0618 54.969 53.0763 54.8791 53.1104C54.7891 53.1444 54.7074 53.1972 54.6395 53.2653L53.6055 54.3003C53.1225 54.7843 52.9445 55.4693 53.1555 56.0703C54.0312 58.5579 55.4558 60.8164 57.3235 62.6783C59.1854 64.546 61.4439 65.9705 63.9315 66.8463C64.5325 67.0573 65.2175 66.8793 65.7015 66.3963L66.7355 65.3623C66.8035 65.2943 66.8563 65.2127 66.8904 65.1227C66.9245 65.0327 66.939 64.9366 66.933 64.8406C66.9271 64.7446 66.9008 64.6509 66.8558 64.5659C66.8109 64.4808 66.7484 64.4063 66.6725 64.3473L64.3655 62.5533C64.2843 62.4904 64.19 62.4467 64.0895 62.4256C63.989 62.4044 63.8851 62.4064 63.7855 62.4313L61.5955 62.9783C61.3032 63.0514 60.9969 63.0475 60.7065 62.967C60.4161 62.8866 60.1515 62.7324 59.9385 62.5193L57.4825 60.0623C57.2692 59.8493 57.1148 59.5848 57.0342 59.2944C56.9536 59.004 56.9495 58.6977 57.0225 58.4053L57.5705 56.2153C57.5954 56.1157 57.5973 56.0117 57.5762 55.9113C57.5551 55.8108 57.5114 55.7164 57.4485 55.6353L55.6545 53.3283ZM53.8845 52.5113C54.0595 52.3362 54.2697 52.2004 54.5012 52.1129C54.7327 52.0253 54.9802 51.988 55.2273 52.0034C55.4743 52.0188 55.7152 52.0866 55.9341 52.2023C56.1529 52.3179 56.3446 52.4788 56.4965 52.6743L58.2905 54.9803C58.6195 55.4033 58.7355 55.9543 58.6055 56.4743L58.0585 58.6643C58.0302 58.7777 58.0317 58.8965 58.0629 59.0092C58.0941 59.1219 58.1539 59.2246 58.2365 59.3073L60.6935 61.7643C60.7763 61.847 60.8792 61.9069 60.992 61.9381C61.1049 61.9693 61.2239 61.9708 61.3375 61.9423L63.5265 61.3953C63.7831 61.3311 64.0509 61.3261 64.3098 61.3807C64.5686 61.4353 64.8116 61.548 65.0205 61.7103L67.3265 63.5043C68.1555 64.1493 68.2315 65.3743 67.4895 66.1153L66.4555 67.1493C65.7155 67.8893 64.6095 68.2143 63.5785 67.8513C60.9397 66.9228 58.5437 65.4121 56.5685 63.4313C54.5878 61.4563 53.0771 59.0608 52.1485 56.4223C51.7865 55.3923 52.1115 54.2853 52.8515 53.5453L53.8855 52.5113H53.8845Z"/>
</mask>
<path d="M55.6545 53.3283C55.5954 53.2524 55.5209 53.1898 55.4359 53.1449C55.3508 53.1 55.2572 53.0737 55.1612 53.0677C55.0652 53.0618 54.969 53.0763 54.8791 53.1104C54.7891 53.1444 54.7074 53.1972 54.6395 53.2653L53.6055 54.3003C53.1225 54.7843 52.9445 55.4693 53.1555 56.0703C54.0312 58.5579 55.4558 60.8164 57.3235 62.6783C59.1854 64.546 61.4439 65.9705 63.9315 66.8463C64.5325 67.0573 65.2175 66.8793 65.7015 66.3963L66.7355 65.3623C66.8035 65.2943 66.8563 65.2127 66.8904 65.1227C66.9245 65.0327 66.939 64.9366 66.933 64.8406C66.9271 64.7446 66.9008 64.6509 66.8558 64.5659C66.8109 64.4808 66.7484 64.4063 66.6725 64.3473L64.3655 62.5533C64.2843 62.4904 64.19 62.4467 64.0895 62.4256C63.989 62.4044 63.8851 62.4064 63.7855 62.4313L61.5955 62.9783C61.3032 63.0514 60.9969 63.0475 60.7065 62.967C60.4161 62.8866 60.1515 62.7324 59.9385 62.5193L57.4825 60.0623C57.2692 59.8493 57.1148 59.5848 57.0342 59.2944C56.9536 59.004 56.9495 58.6977 57.0225 58.4053L57.5705 56.2153C57.5954 56.1157 57.5973 56.0117 57.5762 55.9113C57.5551 55.8108 57.5114 55.7164 57.4485 55.6353L55.6545 53.3283ZM53.8845 52.5113C54.0595 52.3362 54.2697 52.2004 54.5012 52.1129C54.7327 52.0253 54.9802 51.988 55.2273 52.0034C55.4743 52.0188 55.7152 52.0866 55.9341 52.2023C56.1529 52.3179 56.3446 52.4788 56.4965 52.6743L58.2905 54.9803C58.6195 55.4033 58.7355 55.9543 58.6055 56.4743L58.0585 58.6643C58.0302 58.7777 58.0317 58.8965 58.0629 59.0092C58.0941 59.1219 58.1539 59.2246 58.2365 59.3073L60.6935 61.7643C60.7763 61.847 60.8792 61.9069 60.992 61.9381C61.1049 61.9693 61.2239 61.9708 61.3375 61.9423L63.5265 61.3953C63.7831 61.3311 64.0509 61.3261 64.3098 61.3807C64.5686 61.4353 64.8116 61.548 65.0205 61.7103L67.3265 63.5043C68.1555 64.1493 68.2315 65.3743 67.4895 66.1153L66.4555 67.1493C65.7155 67.8893 64.6095 68.2143 63.5785 67.8513C60.9397 66.9228 58.5437 65.4121 56.5685 63.4313C54.5878 61.4563 53.0771 59.0608 52.1485 56.4223C51.7865 55.3923 52.1115 54.2853 52.8515 53.5453L53.8855 52.5113H53.8845Z" fill="white"/>
<path d="M55.6545 53.3283L54.4702 54.2489L54.4704 54.2491L55.6545 53.3283ZM54.6395 53.2653L55.7006 54.3254L55.7008 54.3253L54.6395 53.2653ZM53.6055 54.3003L52.5443 53.2401L52.5437 53.2407L53.6055 54.3003ZM53.1555 56.0703L51.7402 56.5672L51.7406 56.5684L53.1555 56.0703ZM57.3235 62.6783L58.3858 61.6193L58.3825 61.616L57.3235 62.6783ZM63.9315 66.8463L63.4334 68.2612L63.4346 68.2616L63.9315 66.8463ZM65.7015 66.3963L66.761 67.4581L66.7621 67.457L65.7015 66.3963ZM66.7355 65.3623L65.6755 64.301L65.6748 64.3016L66.7355 65.3623ZM66.6725 64.3473L65.7517 65.5314L65.7519 65.5315L66.6725 64.3473ZM64.3655 62.5533L65.2863 61.3692L65.2848 61.368L64.3655 62.5533ZM63.7855 62.4313L64.149 63.8866L64.1494 63.8865L63.7855 62.4313ZM61.5955 62.9783L61.232 61.523L61.2318 61.5231L61.5955 62.9783ZM59.9385 62.5193L58.8776 63.5797L58.8778 63.58L59.9385 62.5193ZM57.4825 60.0623L58.5433 59.0019L58.5425 59.001L57.4825 60.0623ZM57.0225 58.4053L55.5673 58.0412L55.5671 58.0423L57.0225 58.4053ZM57.5705 56.2153L59.0256 56.5794L59.0257 56.5792L57.5705 56.2153ZM57.4485 55.6353L58.6338 54.716L58.6326 54.7145L57.4485 55.6353ZM53.8845 52.5113L52.8236 51.4508L50.264 54.0113H53.8845V52.5113ZM56.4965 52.6743L55.312 53.5947L55.3126 53.5953L56.4965 52.6743ZM58.2905 54.9803L59.4745 54.0594L59.4744 54.0592L58.2905 54.9803ZM58.6055 56.4743L57.1503 56.1105L57.1502 56.1108L58.6055 56.4743ZM58.0585 58.6643L56.6032 58.3008L56.603 58.3014L58.0585 58.6643ZM58.2365 59.3073L57.1748 60.367L57.1758 60.368L58.2365 59.3073ZM60.6935 61.7643L59.6328 62.825L59.6333 62.8255L60.6935 61.7643ZM61.3375 61.9423L60.9738 60.487L60.9728 60.4873L61.3375 61.9423ZM63.5265 61.3953L63.8901 62.8505L63.8903 62.8505L63.5265 61.3953ZM65.0205 61.7103L65.9415 60.5264L65.9409 60.5259L65.0205 61.7103ZM67.3265 63.5043L68.2476 62.3204L68.2475 62.3204L67.3265 63.5043ZM67.4895 66.1153L66.4295 65.0539L66.4288 65.0546L67.4895 66.1153ZM63.5785 67.8513L64.0766 66.4364L64.0763 66.4363L63.5785 67.8513ZM56.5685 63.4313L57.6306 62.3721L57.6276 62.3691L56.5685 63.4313ZM52.1485 56.4223L50.7333 56.9197L50.7335 56.9203L52.1485 56.4223ZM53.8855 52.5113L54.9461 53.572L57.5068 51.0113H53.8855V52.5113ZM56.8387 52.4077C56.6491 52.1637 56.4097 51.9629 56.1365 51.8186L54.7352 54.4712C54.6321 54.4168 54.5418 54.341 54.4702 54.2489L56.8387 52.4077ZM56.1365 51.8186C55.8633 51.6743 55.5625 51.5897 55.2541 51.5706L55.0683 54.5648C54.9519 54.5576 54.8384 54.5257 54.7352 54.4712L56.1365 51.8186ZM55.2541 51.5706C54.9457 51.5515 54.6368 51.5982 54.3478 51.7076L55.4103 54.5131C55.3013 54.5544 55.1847 54.5721 55.0683 54.5648L55.2541 51.5706ZM54.3478 51.7076C54.0589 51.817 53.7965 51.9867 53.5782 52.2053L55.7008 54.3253C55.6184 54.4078 55.5194 54.4718 55.4103 54.5131L54.3478 51.7076ZM53.5783 52.2051L52.5443 53.2401L54.6666 55.3604L55.7006 54.3254L53.5783 52.2051ZM52.5437 53.2407C51.6998 54.0864 51.3176 55.3635 51.7402 56.5672L54.5708 55.5734C54.5694 55.5695 54.5637 55.5512 54.5734 55.5132C54.5835 55.4737 54.6101 55.4171 54.6672 55.3599L52.5437 53.2407ZM51.7406 56.5684C52.6911 59.2684 54.2373 61.7197 56.2645 63.7406L58.3825 61.616C56.6742 59.9131 55.3713 57.8474 54.5704 55.5722L51.7406 56.5684ZM56.2612 63.7373C58.2821 65.7645 60.7334 67.3106 63.4334 68.2612L64.4296 65.4314C62.1544 64.6304 60.0887 63.3275 58.3858 61.6193L56.2612 63.7373ZM63.4346 68.2616C64.6383 68.6842 65.9154 68.3019 66.761 67.4581L64.6419 65.3345C64.5846 65.3917 64.528 65.4183 64.4886 65.4283C64.4505 65.4381 64.4323 65.4324 64.4284 65.431L63.4346 68.2616ZM66.7621 67.457L67.7961 66.423L65.6748 64.3016L64.6408 65.3356L66.7621 67.457ZM67.7955 66.4236C68.0141 66.2053 68.1838 65.9429 68.2932 65.6539L65.4876 64.5915C65.5289 64.4824 65.593 64.3834 65.6755 64.301L67.7955 66.4236ZM68.2932 65.6539C68.4026 65.365 68.4493 65.056 68.4302 64.7477L65.4359 64.9335C65.4287 64.8171 65.4463 64.7005 65.4876 64.5915L68.2932 65.6539ZM68.4302 64.7477C68.411 64.4393 68.3265 64.1385 68.1822 63.8653L65.5295 65.2665C65.4751 65.1634 65.4432 65.0499 65.4359 64.9335L68.4302 64.7477ZM68.1822 63.8653C68.0378 63.592 67.837 63.3527 67.5931 63.163L65.7519 65.5315C65.6598 65.46 65.584 65.3696 65.5295 65.2665L68.1822 63.8653ZM67.5933 63.1632L65.2863 61.3692L63.4447 63.7374L65.7517 65.5314L67.5933 63.1632ZM65.2848 61.368C65.0242 61.1659 64.721 61.0256 64.3983 60.9577L63.7807 63.8934C63.6589 63.8678 63.5445 63.8149 63.4462 63.7386L65.2848 61.368ZM64.3983 60.9577C64.0755 60.8898 63.7416 60.8961 63.4216 60.9761L64.1494 63.8865C64.0286 63.9167 63.9026 63.9191 63.7807 63.8934L64.3983 60.9577ZM63.422 60.976L61.232 61.523L61.959 64.4336L64.149 63.8866L63.422 60.976ZM61.2318 61.5231C61.1907 61.5333 61.1477 61.5328 61.1069 61.5215L60.3061 64.4126C60.8461 64.5622 61.4156 64.5694 61.9592 64.4335L61.2318 61.5231ZM61.1069 61.5215C61.0662 61.5102 61.029 61.4885 60.9991 61.4586L58.8778 63.58C59.274 63.9762 59.7661 64.263 60.3061 64.4126L61.1069 61.5215ZM60.9993 61.4588L58.5433 59.0019L56.4216 61.1227L58.8776 63.5797L60.9993 61.4588ZM58.5425 59.001C58.5125 58.9711 58.4908 58.9339 58.4795 58.8932L55.5888 59.6956C55.7388 60.2356 56.026 60.7276 56.4225 61.1236L58.5425 59.001ZM58.4795 58.8932C58.4682 58.8524 58.4676 58.8094 58.4779 58.7683L55.5671 58.0423C55.4314 58.586 55.4389 59.1556 55.5888 59.6956L58.4795 58.8932ZM58.4776 58.7694L59.0256 56.5794L56.1153 55.8512L55.5673 58.0412L58.4776 58.7694ZM59.0257 56.5792C59.1057 56.2592 59.112 55.9253 59.0441 55.6025L56.1083 56.22C56.0827 56.0982 56.0851 55.9722 56.1153 55.8514L59.0257 56.5792ZM59.0441 55.6025C58.9762 55.2797 58.8359 54.9766 58.6338 54.716L56.2632 56.5546C56.1869 56.4562 56.1339 56.3418 56.1083 56.22L59.0441 55.6025ZM58.6326 54.7145L56.8386 52.4075L54.4704 54.2491L56.2644 56.5561L58.6326 54.7145ZM54.9453 53.5718C54.9699 53.5472 54.9994 53.5281 55.0319 53.5158L53.9705 50.7099C53.54 50.8727 53.1491 51.1253 52.8236 51.4508L54.9453 53.5718ZM55.0319 53.5158C55.0644 53.5036 55.0991 53.4983 55.1338 53.5005L55.3207 50.5063C54.8613 50.4776 54.401 50.547 53.9705 50.7099L55.0319 53.5158ZM55.1338 53.5005C55.1685 53.5026 55.2023 53.5122 55.2331 53.5284L56.635 50.8761C56.2281 50.661 55.7801 50.535 55.3207 50.5063L55.1338 53.5005ZM55.2331 53.5284C55.2638 53.5446 55.2907 53.5672 55.312 53.5947L57.6809 51.7539C57.3985 51.3905 57.042 51.0912 56.635 50.8761L55.2331 53.5284ZM55.3126 53.5953L57.1066 55.9013L59.4744 54.0592L57.6804 51.7532L55.3126 53.5953ZM57.1064 55.9012C57.152 55.9598 57.1686 56.037 57.1503 56.1105L60.0607 56.8381C60.3023 55.8716 60.0869 54.8468 59.4745 54.0594L57.1064 55.9012ZM57.1502 56.1108L56.6032 58.3008L59.5138 59.0278L60.0608 56.8378L57.1502 56.1108ZM56.603 58.3014C56.5122 58.6658 56.5171 59.0475 56.6173 59.4094L59.5085 58.609C59.5464 58.7456 59.5482 58.8897 59.5139 59.0272L56.603 58.3014ZM56.6173 59.4094C56.7175 59.7713 56.9095 60.1012 57.1748 60.367L59.2981 58.2476C59.3982 58.3479 59.4707 58.4724 59.5085 58.609L56.6173 59.4094ZM57.1758 60.368L59.6328 62.825L61.7541 60.7036L59.2971 58.2466L57.1758 60.368ZM59.6333 62.8255C59.8995 63.0913 60.2299 63.2837 60.5924 63.3839L61.3916 60.4923C61.5285 60.5302 61.6532 60.6028 61.7536 60.7031L59.6333 62.8255ZM60.5924 63.3839C60.9549 63.4841 61.3373 63.4887 61.7021 63.3973L60.9728 60.4873C61.1105 60.4528 61.2548 60.4545 61.3916 60.4923L60.5924 63.3839ZM61.7011 63.3975L63.8901 62.8505L63.1628 59.94L60.9738 60.487L61.7011 63.3975ZM63.8903 62.8505C63.9263 62.8415 63.964 62.8408 64.0003 62.8485L64.6192 59.913C64.1379 59.8115 63.6398 59.8208 63.1626 59.9401L63.8903 62.8505ZM64.0003 62.8485C64.0366 62.8561 64.0708 62.8719 64.1001 62.8947L65.9409 60.5259C65.5525 60.224 65.1005 60.0145 64.6192 59.913L64.0003 62.8485ZM64.0994 62.8942L66.4054 64.6882L68.2475 62.3204L65.9415 60.5264L64.0994 62.8942ZM66.4054 64.6882C66.5231 64.7798 66.5319 64.9517 66.4295 65.0539L68.5494 67.1767C69.931 65.7969 69.7878 63.5188 68.2476 62.3204L66.4054 64.6882ZM66.4288 65.0546L65.3948 66.0886L67.5161 68.21L68.5501 67.176L66.4288 65.0546ZM65.3948 66.0886C65.0136 66.4699 64.5002 66.5856 64.0766 66.4364L63.0803 69.2662C64.7188 69.843 66.4174 69.3087 67.5161 68.21L65.3948 66.0886ZM64.0763 66.4363C61.6499 65.5826 59.4469 64.1935 57.6306 62.3721L55.5063 64.4905C57.6406 66.6308 60.2294 68.263 63.0806 69.2663L64.0763 66.4363ZM57.6276 62.3691C55.8063 60.5531 54.4173 58.3504 53.5634 55.9243L50.7335 56.9203C51.7369 59.7711 53.3692 62.3595 55.5093 64.4935L57.6276 62.3691ZM53.5636 55.9249C53.415 55.502 53.5308 54.9872 53.9121 54.606L51.7908 52.4846C50.6921 53.5834 50.158 55.2826 50.7333 56.9197L53.5636 55.9249ZM53.9121 54.606L54.9461 53.572L52.8248 51.4506L51.7908 52.4846L53.9121 54.606ZM53.8855 51.0113H53.8845V54.0113H53.8855V51.0113Z" fill="#131313" mask="url(#path-1-outside-1)"/>
</g>
<defs>
<filter id="filter0_d" x="0.26416" y="0.5" width="119.237" height="119.001" filterUnits="userSpaceOnUse" color-interpolation-filters="sRGB">
<feFlood flood-opacity="0" result="BackgroundImageFix"/>
<feColorMatrix in="SourceAlpha" type="matrix" values="0 0 0 0 0 0 0 0 0 0 0 0 0 0 0 0 0 0 127 0"/>
<feOffset/>
<feGaussianBlur stdDeviation="25"/>
<feColorMatrix type="matrix" values="0 0 0 0 1 0 0 0 0 1 0 0 0 0 1 0 0 0 0.5 0"/>
<feBlend mode="normal" in2="BackgroundImageFix" result="effect1_dropShadow"/>
<feBlend mode="normal" in="SourceGraphic" in2="effect1_dropShadow" result="shape"/>
</filter>
</defs>
</svg>
